<svg xmlns="http://www.w3.org/2000/svg" width="512" height="512" viewBox="0 0 512 512">
  <defs>
    <linearGradient id="ocean" x1="0" y1="0" x2="0" y2="1">
      <stop offset="0" stop-color="#2589aa"/>
      <stop offset="1" stop-color="#123950"/>
    </linearGradient>
  </defs>
  <rect width="512" height="512" fill="url(#ocean)"/>

  <!-- waves -->
  <g fill="none" stroke="#bfe6f2" stroke-width="16" stroke-linecap="round">
    <path d="M52 372 q48 -34 96 0 t96 0 t96 0 t96 0" opacity="0.7"/>
    <path d="M52 420 q48 -34 96 0 t96 0 t96 0 t96 0" opacity="0.45"/>
  </g>

  <!-- sargassum sprig -->
  <g stroke="#eab434" stroke-width="14" stroke-linecap="round" fill="#eab434">
    <path d="M256 336 L256 150" fill="none"/>
    <path d="M256 330 C230 262 210 224 186 186" fill="none"/>
    <path d="M256 330 C282 262 302 224 326 186" fill="none"/>
    <circle cx="256" cy="140" r="20"/>
    <circle cx="186" cy="178" r="17"/>
    <circle cx="326" cy="178" r="17"/>
    <circle cx="224" cy="214" r="14"/>
    <circle cx="288" cy="214" r="14"/>
    <circle cx="256" cy="206" r="14"/>
  </g>
</svg>
